<svg width="512" height="512" viewBox="0 0 512 512" xmlns="http://www.w3.org/2000/svg">
    <title>
        beardless-logo
    </title>
    <g fill="none" fill-rule="evenodd">
        <path fill="#F8E81C" d="M0 0h512v512H0z"/>
        <path d="M207.74 178.546v58.557h65.224c11.651 0 21.11-2.192 28.377-6.576 7.267-4.385 10.9-12.162 10.9-23.333 0-12.372-4.804-20.54-14.413-24.504-8.288-2.763-18.858-4.144-31.711-4.144H207.74zm0 102.52v70.809h65.224c11.651 0 20.72-1.562 27.206-4.685 11.772-5.765 17.657-16.816 17.657-33.152 0-13.813-5.705-23.303-17.116-28.468-6.367-2.883-15.315-4.384-26.846-4.504H207.74zm145.222-120.358c8.168 11.292 12.252 24.805 12.252 40.54 0 16.216-4.084 29.249-12.252 39.098-4.565 5.526-11.291 10.57-20.18 15.135 13.573 4.925 23.813 12.732 30.72 23.423 6.907 10.69 10.36 23.663 10.36 38.918 0 15.735-3.964 29.849-11.892 42.341-5.044 8.288-11.35 15.255-18.918 20.9-8.528 6.487-18.588 10.931-30.18 13.333C301.283 396.8 288.7 398 275.127 398H154.768V132.42h129.006c32.552.481 55.614 9.91 69.188 28.288z" fill="#FFF"/>
        <path fill="#F8E81C" d="M282 129h18v272h-18z"/>
    </g>
</svg>
